<?xml version="1.0" encoding="UTF-8"?><svg id="night" xmlns="http://www.w3.org/2000/svg" viewBox="0 0 3151.784 493.262"><defs><style>.cls-1,.cls-2{fill:none;}.cls-2{stroke:#231f20;stroke-miterlimit:10;}.cls-3{fill:#141414;}</style></defs><rect class="cls-1" x="1135.918" width="2015.865" height="493.262"/><path class="cls-3" d="M1224.878,363.111c-17.07,0-31.79-3.25-44.16-9.76-12.375-6.506-23.255-15.625-32.64-27.36l16.32-16c7.465,10.455,16.16,18.24,26.08,23.36,9.92,5.119,21.705,7.68,35.36,7.68,14.08,0,25.49-3.2,34.24-9.601,8.745-6.399,13.12-15.25,13.12-26.56,0-8.745-2.03-15.945-6.08-21.6-4.055-5.65-9.335-10.24-15.84-13.761-6.51-3.52-13.71-6.665-21.6-9.439-7.895-2.771-15.735-5.705-23.52-8.8-7.79-3.091-14.99-6.985-21.6-11.681-6.615-4.689-11.895-10.665-15.84-17.92-3.95-7.25-5.92-16.529-5.92-27.84,0-11.945,2.88-22.185,8.64-30.72,5.76-8.53,13.65-15.09,23.68-19.681,10.025-4.585,21.44-6.88,34.24-6.88,14.29,0,27.04,2.775,38.24,8.32,11.2,5.55,20.53,13.015,28,22.4l-16,16c-6.83-8.105-14.295-14.29-22.4-18.561-8.11-4.265-17.6-6.399-28.48-6.399-12.8,0-23.04,2.989-30.72,8.96-7.68,5.975-11.52,14.295-11.52,24.96,0,8.319,1.97,15.04,5.92,20.16,3.945,5.119,9.225,9.39,15.84,12.8,6.61,3.415,13.81,6.455,21.6,9.12,7.785,2.67,15.625,5.6,23.52,8.8,7.89,3.2,15.09,7.255,21.6,12.16,6.505,4.909,11.785,11.149,15.84,18.72,4.05,7.575,6.08,17.229,6.08,28.96,0,18.99-6.455,33.76-19.36,44.32-12.91,10.56-30.455,15.84-52.64,15.84Z"/><path class="cls-3" d="M1422.316,269.03l-87.36-129.28h27.52l72.64,108.48h-11.52l73.28-108.48h26.56l-88,129.28h-13.12ZM1417.516,359.91v-107.84h23.68v107.84h-23.68Z"/><path class="cls-3" d="M1579.119,359.91v-220.16h16.64l6.72,27.84v192.32h-23.36ZM1731.439,359.91l-139.2-188.8,3.52-31.36,138.88,188.8-3.2,31.36ZM1731.439,359.91l-7.04-26.56v-193.601h23.68v220.16h-16.64Z"/><path class="cls-3" d="M1811.755,161.191v-21.44h178.56v21.44h-178.56ZM1889.196,359.91v-214.08h23.68v214.08h-23.68Z"/><path class="cls-3" d="M2054.311,359.91v-220.16h23.359v220.16h-23.359ZM2069.671,256.87v-21.44h135.36v21.44h-135.36ZM2198.632,359.91v-220.16h23.359v220.16h-23.359Z"/><path class="cls-3" d="M2302.31,359.91v-220.16h23.359v220.16h-23.359ZM2317.35,261.351v-19.841h64c14.505,0,25.6-3.68,33.28-11.04,7.68-7.359,11.52-17.225,11.52-29.6,0-11.945-3.84-21.705-11.52-29.28-7.681-7.569-18.775-11.359-33.28-11.359h-64v-20.48h64c14.29,0,26.56,2.615,36.8,7.84,10.24,5.23,18.08,12.431,23.52,21.601,5.44,9.175,8.16,19.63,8.16,31.359,0,12.16-2.72,22.83-8.16,32-5.439,9.176-13.279,16.271-23.52,21.28-10.24,5.015-22.51,7.521-36.8,7.521h-64ZM2435.43,359.91l-82.561-101.76,22.721-7.36,89.92,109.12h-30.08Z"/><path class="cls-3" d="M2524.391,359.91v-220.16h23.359v220.16h-23.359ZM2539.751,161.191v-21.44h127.681v21.44h-127.681ZM2539.751,257.51v-20.8h119.36v20.8h-119.36ZM2539.751,359.91v-21.44h129.601v21.44h-129.601Z"/><path class="cls-3" d="M2830.951,363.111c-15.575,0-30.03-2.936-43.36-8.8-13.335-5.865-25.015-13.971-35.04-24.32-10.03-10.345-17.87-22.4-23.52-36.16-5.655-13.76-8.48-28.53-8.48-44.32,0-16,2.771-30.824,8.32-44.479,5.545-13.65,13.33-25.601,23.359-35.84,10.025-10.24,21.65-18.24,34.88-24,13.226-5.761,27.625-8.641,43.2-8.641s30.025,2.88,43.36,8.641c13.33,5.76,25.01,13.76,35.04,24,10.024,10.239,17.81,22.239,23.36,36,5.545,13.76,8.319,28.64,8.319,44.64,0,15.79-2.774,30.561-8.319,44.32-5.551,13.76-13.28,25.76-23.2,36s-21.495,18.295-34.721,24.16c-13.229,5.864-27.63,8.8-43.199,8.8ZM2830.31,340.391c16.641,0,31.41-3.945,44.32-11.841,12.905-7.89,23.04-18.665,30.4-32.319,7.359-13.65,11.04-29.226,11.04-46.721,0-13.01-2.136-25.01-6.4-36-4.271-10.984-10.24-20.585-17.92-28.8-7.68-8.21-16.695-14.56-27.04-19.04-10.351-4.479-21.815-6.72-34.4-6.72-16.43,0-31.095,3.895-44,11.68-12.91,7.79-23.04,18.511-30.399,32.16-7.36,13.655-11.04,29.23-11.04,46.72,0,13.016,2.13,25.07,6.399,36.16,4.266,11.096,10.24,20.75,17.92,28.96,7.681,8.215,16.745,14.561,27.2,19.04,10.45,4.48,21.76,6.721,33.92,6.721Z"/><path class="cls-3" d="M360,455.588c-35.3,20.42-76.28,32.1-120,32.1C107.45,487.688,0,380.238,0,247.688h240c0,88.84,48.27,166.4,120,207.9Z"/><path class="cls-2" d="M480,247.688c0,88.84-48.27,166.4-120,207.9-71.73-41.5-120-119.06-120-207.9h240Z"/><path class="cls-3" d="M600,39.788c-71.73,41.5-120,119.06-120,207.9h-240c0-88.84,48.27-166.4,120-207.9,35.3-20.42,76.28-32.1,120-32.1s84.7,11.68,120,32.1Z"/><path class="cls-3" d="M720,247.688c0,88.84-48.27,166.4-120,207.9-35.3,20.42-76.28,32.1-120,32.1s-84.7-11.68-120-32.1c71.73-41.5,120-119.06,120-207.9h240Z"/><path class="cls-2" d="M240,247.688h240c0,88.84-48.27,166.4-120,207.9-71.73-41.5-120-119.06-120-207.9Z"/><path class="cls-2" d="M720,247.688h-240c0-88.84,48.27-166.4,120-207.9,71.73,41.5,120,119.06,120,207.9Z"/><path class="cls-3" d="M960,247.688h-240c0-88.84-48.27-166.4-120-207.9,35.3-20.42,76.28-32.1,120-32.1,132.55,0,240,107.45,240,240Z"/><path class="cls-2" d="M720,247.688h-240c0-88.84,48.27-166.4,120-207.9,71.73,41.5,120,119.06,120,207.9Z"/></svg>